#!OML:ASF Y:\EmotionMaleHayes\Project 1\Capture day 1\Session 1\Male1.ASF
:FULLY-SPECIFIED
:DEGREES
2511
root -9.37318 16.8361 18.3815 1268 282.566 888.375
lowerback 1.57922 5.33164 -1.44266
upperback -0.662533 6.99127 -3.05514
thorax -1.35154 3.47498 -2.5116
lowerneck -24.9549 -1.63165 0.947321
upperneck 19.39 -2.92526 1.15625
head 10.3129 -1.13225 -0.204909
rclavicle 3.28492e-014 -1.74931e-014
rhumerus -32.199 12.0857 -90.9464
rradius 38.0932
rwrist 1.72572
rhand -8.92036 -30.6835
rfingers 7.12502
rthumb 17.0231 -59.9576
lclavicle 3.28492e-014 -1.74931e-014
lhumerus -41.0442 4.94903 76.2271
lradius 21.7875
lwrist -18.5393
lhand -12.7928 -21.9859
lfingers 7.12502
lthumb 13.2929 7.57017
rfemur 23.2712 5.436 15.228
rtibia 30.2827
rfoot -0.619182 -2.26386
rtoes 14.8943
lfemur -3.71214 8.86078 -20.1517
ltibia 6.36843
lfoot -1.52553 3.58127
ltoes 8.03633
2512
root -9.52914 16.8504 18.4094 1269.87 282.646 886.266
lowerback 1.82327 5.24866 -1.90905
upperback -0.913367 6.84555 -3.09656
thorax -1.80024 3.40251 -2.33915
lowerneck -24.5311 -1.53204 1.12387
upperneck 19.6844 -2.79404 0.898746
head 10.3372 -1.09258 -0.303753
rclavicle 4.62671e-014 -3.4191e-014
rhumerus -33.4824 11.3439 -91.0259
rradius 37.4552
rwrist 2.01646
rhand -8.9342 -30.5883
rfingers 7.12502
rthumb 17.0098 -59.8635
lclavicle 4.62671e-014 -3.4191e-014
lhumerus -40.9429 4.31107 76.8047
lradius 22.2499
lwrist -17.8512
lhand -12.9723 -21.8896
lfingers 7.12502
lthumb 13.1199 7.67765
rfemur 22.7034 5.35952 14.3922
rtibia 31.9247
rfoot 1.04047 -2.87403
rtoes 18.2766
lfemur -2.88877 8.98481 -20.8868
ltibia 6.33426
lfoot -1.48959 3.454
ltoes 8.2898
2513
root -9.67788 16.8629 18.4335 1273.52 282.87 882.256
lowerback 2.23126 5.28722 -2.72339
upperback -0.990412 6.83363 -3.32739
thorax -2.17606 3.39866 -2.18064
lowerneck -24.3615 -1.49485 1.00949
upperneck 19.7667 -2.74583 1.06612
head 10.3418 -1.05923 -0.217034
rclavicle -3.27498e-014 -1.03368e-014
rhumerus -34.2334 10.4196 -90.9458
rradius 36.4875
rwrist 2.12489
rhand -9.30697 -30.3701
rfingers 7.12502
rthumb 16.6509 -59.6759
lclavicle -3.27498e-014 -1.03368e-014
lhumerus -40.431 3.27618 77.6014
lradius 22.7766
lwrist -17.1246
lhand -13.2334 -21.5067
lfingers 7.12502
lthumb 12.8682 8.07658
rfemur 22.296 5.27981 13.0051
rtibia 33.318
rfoot 2.85761 -3.46509
rtoes 20.7664
lfemur -1.98202 9.02552 -22.109
ltibia 6.19829
lfoot -1.64061 3.18143
ltoes 7.29805
2514
root -9.81795 16.8727 18.4525 1276.85 283.134 878.607
lowerback 2.22183 5.1799 -3.73879
upperback -0.89701 6.64802 -3.41804
thorax -2.18361 3.31248 -1.7091
lowerneck -24.1832 -1.17138 1.47638
upperneck 19.8704 -2.35186 0.609646
head 10.3349 -0.900436 -0.394075
rclavicle 3.87133e-014 -2.06736e-014
rhumerus -34.7457 9.77772 -90.7991
rradius 35.4969
rwrist 2.5638
rhand -9.22247 -30.2453
rfingers 7.12502
rthumb 16.7323 -59.5443
lclavicle 3.87133e-014 -2.06736e-014
lhumerus -39.8642 2.66484 78.3235
lradius 23.3936
lwrist -16.2524
lhand -13.6366 -21.5014
lfingers 7.12502
lthumb 12.4795 8.10597
rfemur 21.4081 5.2223 11.7706
rtibia 35.3231
rfoot 4.23795 -3.92361
rtoes 21.9865
lfemur -1.19762 9.18794 -23.2101
ltibia 6.19675
lfoot -2.21067 3.24322
ltoes 12.1153
2515
root -9.95376 16.8776 18.4679 1278.2 283.233 876.933
lowerback 2.4501 5.07817 -4.28013
upperback -0.853231 6.47625 -3.4066
thorax -2.32848 3.23191 -1.41694
lowerneck -23.5448 -1.058 1.34045
upperneck 19.419 -2.20999 0.950161
head 10.0653 -0.812347 -0.221883
rclavicle -2.08724e-015 7.95139e-016
rhumerus -35.3686 8.83511 -90.5422
rradius 34.6871
rwrist 3.37844
rhand -9.12678 -30.1429
rfingers 7.12502
rthumb 16.8244 -59.434
lclavicle -2.08724e-015 7.95139e-016
lhumerus -39.2653 1.97379 78.9644
lradius 23.8836
lwrist -15.486
lhand -14.1275 -21.7355
lfingers 7.12502
lthumb 12.0062 7.90014
rfemur 20.6257 5.11691 11.165
rtibia 37.1482
rfoot 5.47368 -4.61954
rtoes 22.7382
lfemur -0.349587 9.3386 -23.6976
ltibia 6.20472
lfoot -2.6715 3.01601
ltoes 12.419
2516
root -10.0852 16.8824 18.4805 1278.72 283.265 876.087
lowerback 2.71996 4.99999 -4.60061
upperback -0.754001 6.3453 -3.36043
thorax -2.41648 3.16987 -1.20999
lowerneck -23.5352 -1.02708 1.14323
upperneck 19.3055 -2.20481 1.39049
head 10.0319 -0.771912 -0.0323818
rclavicle 2.31087e-014 -4.45278e-014
rhumerus -35.9078 7.97823 -90.2728
rradius 33.9828
rwrist 3.93211
rhand -9.08691 -30.2228
rfingers 7.12502
rthumb 16.8628 -59.5106
lclavicle 2.31087e-014 -4.45278e-014
lhumerus -38.6168 1.22216 79.6046
lradius 24.502
lwrist -14.7543
lhand -14.4522 -21.6613
lfingers 7.12502
lthumb 11.693 7.99241
rfemur 19.7986 5.01258 10.8669
rtibia 38.9928
rfoot 6.55644 -5.57723
rtoes 23.0324
lfemur 0.532361 9.4515 -23.8983
ltibia 6.10384
lfoot -3.03457 2.71171
ltoes 12.5172
2517
root -10.2166 16.8875 18.4942 1280.05 283.315 874.51
lowerback 2.81984 4.91483 -5.0872
upperback -0.632316 6.20974 -3.31578
thorax -2.40213 3.10576 -0.895837
lowerneck -23.5957 -0.812061 1.41743
upperneck 19.4559 -1.90017 0.955651
head 10.0879 -0.662206 -0.185657
rclavicle -1.89839e-014 4.37326e-014
rhumerus -36.4414 7.19999 -89.8879
rradius 33.4102
rwrist 4.42345
rhand -8.78935 -30.4803
rfingers 7.12502
rthumb 17.1492 -59.7434
lclavicle -1.89839e-014 4.37326e-014
lhumerus -38.0501 0.503771 80.361
lradius 25.3174
lwrist -13.8446
lhand -14.8647 -21.6333
lfingers 7.12502
lthumb 11.2953 8.04254
rfemur 18.858 4.82945 10.293
rtibia 40.7942
rfoot 7.2695 -6.24888
rtoes 23.2015
lfemur 1.26666 9.66386 -24.326
ltibia 6.0609
lfoot -3.21764 2.14008
ltoes 10.5666
